<svg xmlns="http://www.w3.org/2000/svg" xmlns:xlink="http://www.w3.org/1999/xlink" viewBox="0 0 16 27"><use xlink:href="#B" enable-background="new"/><use xlink:href="#B" fill="none" stroke-width=".5" enable-background="new"/><defs ><path id="B" d="M2.6 26.3c-.5 0-1-.2-1.4-.6s-.6-.8-.6-1.4v-22c0-.5.2-1 .6-1.4S2 .3 2.6.3H13c.5 0 1 .2 1.4.6s.6.8.6 1.4v22.1c0 .5-.2 1-.6 1.4s-.8.6-1.4.6H2.6zM2.2 1.8c-.1.1-.2.3-.2.5v22.1c0 .2.1.3.2.5s.3.2.5.2H13c.2 0 .3-.1.5-.2s.2-.3.2-.5V2.3c0-.2-.1-.3-.2-.5s-.3-.2-.5-.2H2.6c-.1 0-.3.1-.4.2zM4.4 4c-.1.1-.3.2-.5.2s-.3-.1-.5-.2-.2-.3-.2-.5.1-.3.2-.5.3-.2.5-.2.3.1.5.2.2.3.2.5-.1.4-.2.5zm2.1.2c-.2 0-.3-.1-.5-.2s-.2-.3-.2-.5.1-.3.2-.5.3-.2.5-.2h2.6c.2 0 .3.1.5.2s.2.3.2.5-.1.3-.2.5-.3.2-.5.2H6.5zm0 18.9c-.4-.4-.6-.8-.6-1.4s.2-1 .6-1.4.8-.6 1.4-.6c.5 0 1 .2 1.4.6s.6.8.6 1.4-.2 1-.6 1.4-.8.6-1.4.6-1.1-.2-1.4-.6zm.9-1.8c-.1.1-.2.3-.2.5s.1.3.2.5.3.2.5.2.3-.1.5-.2.2-.3.2-.5-.1-.3-.2-.5-.3-.2-.5-.2-.4.1-.5.2z"/></defs></svg>
