<svg xmlns="http://www.w3.org/2000/svg" xmlns:xlink="http://www.w3.org/1999/xlink" viewBox="0 0 26 26"><use xlink:href="#B" enable-background="new"/><use xlink:href="#B" fill="none" stroke-width=".5" enable-background="new"/><defs ><path id="B" d="M2.5 12.3c-.5 0-1-.2-1.4-.6s-.6-.8-.6-1.4V2.5c0-.5.2-1 .6-1.4S1.9.5 2.5.5h7.8c.5 0 1 .2 1.4.6s.6.8.6 1.4v7.8c0 .5-.2 1-.6 1.4s-.8.6-1.4.6H2.5zm0 13c-.5 0-1-.2-1.4-.6s-.6-.8-.6-1.4v-7.8c0-.5.2-1 .6-1.4s.8-.6 1.4-.6h7.8c.5 0 1 .2 1.4.6s.6.8.6 1.4v7.8c0 .5-.2 1-.6 1.4s-.8.6-1.4.6H2.5zM2 2.1c-.1.1-.2.3-.2.5v7.8c0 .2.1.3.2.5s.3.2.5.2h7.8c.2 0 .3-.1.5-.2s.2-.3.2-.5V2.6c0-.2-.1-.3-.2-.5s-.3-.2-.5-.2H2.5c-.2 0-.4.1-.5.2zm0 13c-.1.1-.2.3-.2.5v7.8c0 .2.1.3.2.5s.3.2.5.2h7.8c.2 0 .3-.1.5-.2s.2-.3.2-.5v-7.8c0-.2-.1-.3-.2-.5s-.3-.2-.5-.2H2.5c-.2 0-.4.1-.5.2zm1.8-8c-.2 0-.3-.1-.5-.2s-.2-.3-.2-.5.1-.3.2-.5.3-.2.5-.2H9c.2 0 .3.1.5.2s.2.3.2.5-.1.3-.2.5-.3.2-.5.2H3.8zM7 18.8v-1.9c0-.2-.1-.3-.2-.5s-.3-.2-.5-.2-.3.1-.5.2-.2.3-.2.5v1.9h-2c-.2 0-.3.1-.5.2s-.2.3-.2.5.1.3.2.5.3.2.5.2h2V22c0 .2.1.3.2.5s.3.2.5.2.3-.1.5-.2.2-.3.2-.5v-1.9h2c.2 0 .3-.1.5-.2s.2-.3.2-.5-.1-.3-.2-.5-.3-.2-.5-.2H7zm8.5 6.5c-.5 0-1-.2-1.4-.6s-.6-.8-.6-1.4V2.5c0-.5.2-1 .6-1.4s.8-.6 1.4-.6h7.8c.5 0 1 .2 1.4.6s.6.8.6 1.4v20.8c0 .5-.2 1-.6 1.4s-.8.6-1.4.6h-7.8zM15 2.1c-.1.1-.2.3-.2.5v20.8c0 .2.1.3.2.5s.3.2.5.2h7.8c.2 0 .3-.1.5-.2s.2-.3.2-.5V2.5c0-.2-.1-.3-.2-.5s-.3-.2-.5-.2h-7.8c-.2.1-.4.2-.5.3zm1.8 10.2c-.2 0-.3-.1-.5-.2s-.2-.3-.2-.5.1-.3.2-.5.3-.2.5-.2H22c.2 0 .3.1.5.2s.2.3.2.5-.1.3-.2.5-.3.2-.5.2h-5.2zm0 2.6c-.2 0-.3-.1-.5-.2s-.2-.3-.2-.5.1-.3.2-.5.3-.2.5-.2H22c.2 0 .3.1.5.2s.2.3.2.5-.1.3-.2.5-.3.2-.5.2h-5.2z"/></defs></svg>
