<svg xmlns="http://www.w3.org/2000/svg" viewBox="0 0 29 29"><path d="M2.9 26.8c-.2 0-.3-.1-.4-.2s-.2-.3-.2-.5c.8-5.6 3.4-11 7.4-15.3l1.1-1.1a27 27 0 0 1 15.3-7.4c.2 0 .4 0 .5.2s.2.3.2.5a27 27 0 0 1-7.4 15.3l-1.1 1.1c-4.3 4-9.7 6.7-15.4 7.4zM25.4 3.7c-5.2.9-10 3.3-13.8 6.9l-1.1 1.1c-3.6 3.9-6 8.7-6.9 13.8 5-.9 9.9-3.3 13.8-6.9l1.1-1.1a26 26 0 0 0 6.9-13.8zM17.8 19zm8.1 9.5c-.7 0-1.3-.3-1.8-.8 0 0 0-.1-.1-.1-2.1-3-2.7-4.9-2-5.6.8-.8 2.6-.1 5.6 2 0 0 .1 0 .1.1 1 1 1 2.7 0 3.7-.4.5-1.1.7-1.8.7zm-.9-1.6c.5.5 1.4.5 1.9 0s.5-1.3 0-1.9c-1.6-1.1-3.3-2-3.9-2 0 .6.9 2.3 2 3.9zM6.3 7.5c-1 0-2.6-.8-4.8-2.3 0 0-.1 0-.1-.1-1-1-1-2.7 0-3.7s2.7-1 3.7 0l.1.1c2.1 3 2.7 4.9 2 5.6-.2.3-.5.4-.9.4zm-4-3.3c1.6 1.1 3.3 2 3.9 2 0-.6-.9-2.3-2-3.9-.5-.5-1.4-.5-1.9 0-.5.6-.5 1.4 0 1.9z"/><path d="M22.4 23c-.2 0-.3-.1-.4-.2L6.4 7.3c-.2-.3-.2-.7 0-.9s.6-.2.9 0l15.6 15.5c.2.2.2.6 0 .9-.2.2-.3.2-.5.2zm-.4-8.2c-.2 0-.3-.1-.4-.2l-7-7c-.2-.2-.2-.6 0-.9s.6-.2.9 0l7 7c.2.2.2.6 0 .9-.2.1-.4.2-.5.2zm1.9-3.5c-.2 0-.3-.1-.4-.2L18 5.6c-.2-.2-.2-.6 0-.9.2-.2.6-.2.9 0l5.5 5.5c.2.2.2.6 0 .9-.1.1-.3.2-.5.2zM14 22.6c-.2 0-.3-.1-.4-.2l-6.9-6.9c-.2-.2-.2-.6 0-.9s.6-.2.9 0l6.9 6.9c.2.2.2.6 0 .9-.1.1-.3.2-.5.2zm-3.4 1.9c-.2 0-.3-.1-.4-.2L4.7 19c-.2-.2-.2-.6 0-.9.2-.2.6-.2.9 0l5.4 5.4c.2.2.2.6 0 .9-.1.1-.3.1-.4.1z"/></svg>
